<svg width="1247" height="910" viewBox="0 0 1247 910" fill="none" xmlns="http://www.w3.org/2000/svg">
<path d="M1003.22 559.913C1104.34 625.513 1172.36 707.183 1205.45 828.233" stroke="#00C48B" stroke-width="38" stroke-linecap="round" stroke-linejoin="round"/>
<path d="M1018.09 393.373L996.76 440.603C984.941 466.783 961.143 481.393 941.465 475.663L941.535 475.693L878.08 458.693L878.03 458.673C875.82 458.143 873.64 457.363 871.54 456.323L645.988 343.733L844.632 290.503C851.812 288.583 859.331 288.673 866.381 290.703L929.496 307.613C932.435 308.323 935.315 309.373 938.065 310.743L999.63 341.473C1018.72 351.003 1026.88 373.913 1018.09 393.363V393.373ZM921.286 379.423L864.001 350.823L838.333 357.703C826.084 360.983 821.464 381.813 831.844 386.993L898.598 420.313C898.758 420.183 898.928 420.063 899.088 419.933C899.178 419.863 899.268 419.783 899.348 419.713C899.848 419.283 900.338 418.843 900.818 418.383C900.878 418.323 900.938 418.263 901.008 418.193C901.458 417.743 901.908 417.283 902.348 416.803C902.408 416.743 902.458 416.683 902.518 416.623C902.968 416.123 903.418 415.593 903.848 415.053C903.938 414.943 904.018 414.833 904.108 414.723C904.538 414.173 904.958 413.613 905.368 413.023C905.408 412.963 905.448 412.913 905.478 412.853C905.858 412.303 906.228 411.733 906.588 411.143C906.658 411.033 906.728 410.923 906.798 410.813C907.168 410.203 907.528 409.573 907.868 408.923C907.938 408.793 908.007 408.653 908.077 408.523C908.427 407.853 908.767 407.173 909.077 406.463L921.296 379.413L921.286 379.423Z" fill="#B4BDC5"/>
<g style="mix-blend-mode:multiply" opacity="0.2">
<path d="M883.529 345.593L898.798 342.893C912.187 340.523 925.976 342.383 938.265 348.203L976.381 366.273C986.091 370.873 990.87 381.963 987.571 392.183L986.081 396.783L883.529 345.593Z" fill="#001231"/>
</g>
<g style="mix-blend-mode:multiply" opacity="0.3">
<path d="M986.081 396.783L921.286 379.423L864.001 350.823L883.529 345.593L986.081 396.783Z" fill="#001231"/>
</g>
<g style="mix-blend-mode:multiply" opacity="0.1">
<path d="M986.081 396.783L921.286 379.423L909.077 406.473L973.872 423.823L986.081 396.783Z" fill="#001231"/>
</g>
<g opacity="0.2">
<path d="M710.773 361.093L909.417 307.863C916.027 306.093 922.926 306.033 929.486 307.623L866.371 290.713C859.322 288.683 851.802 288.583 844.623 290.513L645.978 343.743L710.773 361.103V361.093Z" fill="white"/>
</g>
<path opacity="0.2" d="M898.598 420.313L941.325 441.643C952.364 447.153 966.933 439.183 973.862 423.833L909.067 406.473C906.458 412.243 902.768 416.953 898.598 420.313Z" fill="white"/>
<path d="M983.408 572.566C974.94 567.339 973.163 554.861 979.438 544.696C985.713 534.532 997.665 530.53 1006.13 535.758C1014.6 540.985 1016.38 553.463 1010.1 563.628C1003.83 573.792 991.876 577.794 983.408 572.566Z" fill="#B4BDC5"/>
<path d="M983.408 572.566C974.94 567.339 973.163 554.861 979.438 544.696C985.713 534.532 997.665 530.53 1006.13 535.758C1014.6 540.985 1016.38 553.463 1010.1 563.628C1003.83 573.792 991.876 577.794 983.408 572.566Z" fill="#9AE9FF"/>
<path d="M983.408 572.566C974.94 567.339 973.163 554.861 979.438 544.696C985.713 534.532 997.665 530.53 1006.13 535.758C1014.6 540.985 1016.38 553.463 1010.1 563.628C1003.83 573.792 991.876 577.794 983.408 572.566Z" fill="#9AE9FF"/>
<path d="M983.408 572.566C974.94 567.339 973.163 554.861 979.438 544.696C985.713 534.532 997.665 530.53 1006.13 535.758C1014.6 540.985 1016.38 553.463 1010.1 563.628C1003.83 573.792 991.876 577.794 983.408 572.566Z" fill="#242B52"/>
<path d="M899.198 535.243L986.521 573.733L1008.92 537.652L941.444 471.812L899.198 535.243Z" fill="#242B52"/>
<path d="M900.912 536.679C885.983 527.462 882.846 505.468 893.905 487.553C904.964 469.639 926.031 462.589 940.96 471.807C955.888 481.024 959.026 503.018 947.967 520.933C936.908 538.847 915.841 545.897 900.912 536.679Z" fill="#001230"/>
<path d="M912.717 561.253C912.577 561.183 912.427 561.113 912.287 561.033L805.436 507.073L850.612 416.053L956.774 469.663C957.194 469.863 957.614 470.073 958.034 470.303L958.383 470.473C960.003 471.373 961.583 472.393 963.093 473.563C981.752 487.983 984.311 518.493 968.813 541.713C955.014 562.373 931.556 570.273 913.407 561.583L912.727 561.253H912.717Z" fill="#242B52"/>
<mask id="mask0_953_37370" style="mask-type:luminance" maskUnits="userSpaceOnUse" x="805" y="416" width="174" height="150">
<path d="M912.717 561.253C912.577 561.183 912.427 561.113 912.287 561.033L805.436 507.073L850.612 416.053L956.774 469.663C957.194 469.863 957.614 470.073 958.034 470.303L958.383 470.473C960.003 471.373 961.583 472.393 963.093 473.563C981.752 487.983 984.311 518.493 968.813 541.713C955.014 562.373 931.556 570.273 913.407 561.583L912.727 561.253H912.717Z" fill="white"/>
</mask>
<g mask="url(#mask0_953_37370)">
<g style="mix-blend-mode:multiply" opacity="0.1">
<path d="M804.115 453.187L988.669 545.976L970.358 582.402L785.804 489.613L804.115 453.187Z" fill="#001231"/>
</g>
<path opacity="0.2" d="M824.817 411.142L1009.37 503.921L996.403 529.724L811.845 436.944L824.817 411.142Z" fill="white"/>
</g>
<path d="M807.939 508.203C786.641 498.527 778.786 469.964 790.396 444.404C802.005 418.845 828.682 405.969 849.98 415.645C871.279 425.32 879.134 453.884 867.524 479.443C855.915 505.002 829.238 517.878 807.939 508.203Z" fill="#001230"/>
<path d="M875.07 555.093C874.89 555.003 874.7 554.913 874.52 554.813L736.611 485.163L794.916 367.683L931.945 436.883C932.495 437.143 933.035 437.413 933.575 437.703L934.025 437.933V437.953C936.105 439.103 938.145 440.413 940.105 441.923C964.183 460.543 967.492 499.923 947.484 529.883C929.676 556.553 899.398 566.753 875.98 555.533V555.553L875.09 555.103L875.07 555.093Z" fill="#B4BDC5"/>
<mask id="mask1_953_37370" style="mask-type:luminance" maskUnits="userSpaceOnUse" x="736" y="367" width="225" height="194">
<path d="M875.07 555.093C874.89 555.003 874.7 554.913 874.52 554.813L736.611 485.163L794.916 367.683L931.945 436.883C932.495 437.143 933.035 437.413 933.575 437.703L934.025 437.933V437.953C936.105 439.103 938.145 440.413 940.105 441.923C964.183 460.543 967.492 499.923 947.484 529.883C929.676 556.553 899.398 566.753 875.98 555.533V555.553L875.09 555.103L875.07 555.093Z" fill="white"/>
</mask>
<g mask="url(#mask1_953_37370)">
<g style="mix-blend-mode:multiply" opacity="0.1">
<path d="M734.902 415.681L973.103 535.441L949.47 582.454L711.269 462.694L734.902 415.681Z" fill="#001231"/>
</g>
<path opacity="0.2" d="M761.635 361.414L999.842 481.164L983.097 514.471L744.89 394.721L761.635 361.414Z" fill="white"/>
</g>
<path d="M739.852 486.656C712.364 474.168 702.226 437.305 717.209 404.319C732.192 371.333 766.621 354.715 794.109 367.203C821.597 379.69 831.734 416.553 816.752 449.54C801.769 482.526 767.34 499.143 739.852 486.656Z" fill="#001230"/>
<path d="M792.896 296.733C876 275.973 898.398 293.363 899.428 343.493C900.798 410.253 846.002 470.473 810.555 479.973L704.634 508.363L657.647 332.983L792.906 296.733H792.896Z" fill="#B4BDC5"/>
<mask id="mask2_953_37370" style="mask-type:luminance" maskUnits="userSpaceOnUse" x="657" y="288" width="243" height="221">
<path d="M792.896 296.733C876 275.973 898.398 293.363 899.428 343.493C900.798 410.253 846.002 470.473 810.555 479.973L704.634 508.363L657.647 332.983L792.906 296.733H792.896Z" fill="white"/>
</mask>
<g mask="url(#mask2_953_37370)">
<g style="mix-blend-mode:multiply" opacity="0.1">
<path d="M958.425 421.664L699.964 490.924L682.811 426.902L941.272 357.642L958.425 421.664Z" fill="#001231"/>
</g>
<path opacity="0.2" d="M923.949 309.29L669.563 377.458L661.315 346.674L915.701 278.506L923.949 309.29Z" fill="white"/>
</g>
<path d="M617.667 437.674C604.691 389.246 622.908 342.287 658.353 332.788C693.799 323.29 733.053 354.849 746.028 403.277C759.003 451.705 740.787 498.663 705.341 508.162C669.895 517.66 630.642 486.102 617.667 437.674Z" fill="#43596D"/>
<path d="M617.829 437.479C605.081 389.905 622.976 343.774 657.798 334.444C692.62 325.114 731.183 356.117 743.931 403.691C756.679 451.265 738.784 497.395 703.962 506.726C669.14 516.056 630.577 485.053 617.829 437.479Z" fill="#242B52"/>
<g style="mix-blend-mode:multiply" opacity="0.4">
<path d="M737.161 479.443L699.284 489.513L686.815 442.523L747.71 426.213C749.15 446.113 745.31 464.813 737.161 479.443Z" fill="#242B52"/>
</g>
<path opacity="0.1" d="M729.971 371.543L671.956 387.133L661.407 347.813L694.974 338.703C708.163 345.173 720.632 356.683 729.981 371.553L729.971 371.543Z" fill="white"/>
<path d="M704.102 506.914L686.533 511.622L640.376 339.349L657.945 334.641L704.102 506.914Z" fill="#242B52"/>
<g style="mix-blend-mode:multiply" opacity="0.4">
<path d="M699.524 489.779L681.955 494.487L669.362 447.485L686.931 442.777L699.524 489.779Z" fill="#242B52"/>
</g>
<path opacity="0.1" d="M672.056 387.331L654.487 392.039L643.972 352.793L661.541 348.086L672.056 387.331Z" fill="white"/>
<path d="M600.974 442.006C588.227 394.431 606.123 348.3 640.945 338.969C675.767 329.638 714.328 360.64 727.075 408.214C739.821 455.789 721.926 501.92 687.104 511.251C652.282 520.582 613.72 489.58 600.974 442.006Z" fill="#43596D"/>
<g style="mix-blend-mode:multiply" opacity="0.1">
<path d="M774.328 366.993L872.73 340.623C877.23 339.423 880.87 342.893 880.87 348.393L766.189 379.123C766.189 373.633 769.838 368.203 774.328 366.993Z" fill="#001231"/>
</g>
<path opacity="0.2" d="M872.72 360.513L774.318 386.883C769.819 388.083 766.179 384.613 766.179 379.113L880.86 348.383C880.86 353.873 877.22 359.303 872.72 360.513Z" fill="white"/>
<path opacity="0.2" d="M900.468 547.393L809.595 501.363C805.446 499.263 805.046 494.233 808.715 490.143L914.627 543.793C910.957 547.883 904.618 549.493 900.468 547.393Z" fill="white"/>
<g style="mix-blend-mode:multiply" opacity="0.1">
<path d="M822.874 486.543L913.747 532.573C917.897 534.673 918.296 539.703 914.627 543.793L808.715 490.143C812.385 486.053 818.715 484.443 822.874 486.543Z" fill="#001231"/>
</g>
<path opacity="0.2" d="M925.556 529.613L834.683 483.583C830.533 481.483 830.133 476.453 833.803 472.363L939.715 526.013C936.045 530.103 929.705 531.713 925.556 529.613Z" fill="white"/>
<g style="mix-blend-mode:multiply" opacity="0.1">
<path d="M847.952 468.763L938.825 514.793C942.975 516.893 943.374 521.923 939.705 526.013L833.793 472.363C837.463 468.273 843.792 466.663 847.952 468.763Z" fill="#001231"/>
</g>
<path d="M628.19 354.383C630.059 353.723 632.149 353.673 634.339 354.253L688.455 368.753C691.225 369.493 693.865 371.193 696.094 373.653C713.643 393.033 723.782 420.103 723.222 446.073C722.802 465.603 716.263 482.343 704.804 493.233C698.954 498.783 692.155 502.483 684.785 504.253L614.321 523.143L555.425 373.893L628.18 354.393L628.19 354.383Z" fill="#242B52"/>
<mask id="mask3_953_37370" style="mask-type:luminance" maskUnits="userSpaceOnUse" x="555" y="353" width="169" height="171">
<path d="M628.19 354.383C630.059 353.723 632.149 353.673 634.339 354.253L688.455 368.753C691.225 369.493 693.865 371.193 696.094 373.653C713.643 393.033 723.782 420.103 723.222 446.073C722.802 465.603 716.263 482.343 704.804 493.233C698.954 498.783 692.155 502.483 684.785 504.253L614.321 523.143L555.425 373.893L628.18 354.393L628.19 354.383Z" fill="white"/>
</mask>
<g mask="url(#mask3_953_37370)">
<path opacity="0.1" d="M712.023 365.578L540.875 411.441L532.065 378.561L703.214 332.698L712.023 365.578Z" fill="white"/>
<path opacity="0.1" d="M683.86 343.133L512.712 388.996L504.28 357.526L675.429 311.663L683.86 343.133Z" fill="white"/>
<g style="mix-blend-mode:multiply" opacity="0.4">
<path d="M743.882 475.805L619.152 509.229L607.558 465.956L732.287 432.532L743.882 475.805Z" fill="#242B52"/>
</g>
</g>
<path d="M588.513 523.713C604.452 527.693 619.54 523.903 630.989 513.023C642.449 502.143 648.988 485.393 649.408 465.863C649.968 439.903 639.829 412.823 622.28 393.443C620.05 390.983 617.411 389.293 614.641 388.543L560.525 374.043C557.765 373.303 555.135 373.573 552.936 374.823C535.907 384.483 525.748 405.363 525.748 430.663C525.748 451.023 532.177 471.893 543.857 489.423C555.536 506.953 571.064 519.043 587.583 523.463C587.583 523.463 588.203 523.623 588.503 523.703L588.513 523.713Z" fill="#7D8191"/>
<path d="M559.825 377.373L613.941 391.873C616.231 392.483 618.491 393.903 620.39 396.003C636.619 413.943 647.148 439.933 646.588 465.943C645.748 504.933 619.59 529.763 587.773 521.813C554.376 513.463 527.158 472.983 527.158 431.963C527.158 406.593 537.577 387.023 553.416 378.033C555.295 376.963 557.545 376.773 559.825 377.383V377.373Z" fill="#566576"/>
<path d="M638.099 410.033L651.228 406.513L641.789 391.443L628.66 394.963L638.099 410.033Z" fill="#152141"/>
<path d="M860.781 286.963L656.937 341.603L661.337 359.343L666.927 357.813L673.426 349.373L673.466 343.563L869.17 291.193L860.781 286.963Z" fill="#242B52"/>
<path d="M641.409 337.433L645.808 355.183L661.337 359.343L656.937 341.603L641.409 337.433Z" fill="#303A66"/>
<path d="M845.103 282.763L860.781 286.963L656.938 341.603L641.409 337.433L845.103 282.763Z" fill="#404079"/>
<path d="M704.824 324.313L723.092 323.003L709.713 319.413L704.824 324.313Z" fill="#00FF8B"/>
<path d="M532.486 449.428C526.121 432.935 530.685 415.813 542.68 411.185C554.674 406.557 569.557 416.175 575.921 432.668C582.286 449.161 577.722 466.284 565.727 470.912C553.733 475.54 538.85 465.921 532.486 449.428Z" fill="#242B52"/>
<mask id="mask4_953_37370" style="mask-type:luminance" maskUnits="userSpaceOnUse" x="529" y="410" width="50" height="63">
<path d="M532.486 449.428C526.121 432.935 530.685 415.813 542.68 411.185C554.674 406.557 569.557 416.175 575.921 432.668C582.286 449.161 577.722 466.284 565.727 470.912C553.733 475.54 538.85 465.921 532.486 449.428Z" fill="white"/>
</mask>
<g mask="url(#mask4_953_37370)">
<g style="mix-blend-mode:multiply" opacity="0.2">
<path d="M543.533 453.885C530.884 441.536 527.91 424.066 536.89 414.866C545.871 405.666 563.406 408.219 576.055 420.568C588.704 432.917 591.678 450.387 582.698 459.587C573.717 468.787 556.183 466.234 543.533 453.885Z" fill="#242B52"/>
</g>
<g style="mix-blend-mode:multiply" opacity="0.2">
<path d="M551.536 453.817C536.196 445.031 528.94 428.865 535.33 417.709C541.719 406.552 559.335 404.629 574.675 413.414C590.015 422.2 597.271 438.366 590.881 449.522C584.491 460.679 566.876 462.602 551.536 453.817Z" fill="#242B52"/>
</g>
<path d="M601.298 442.879L564.499 452.74L557.343 426.032L594.142 416.171L601.298 442.879Z" fill="#43596D"/>
<g style="mix-blend-mode:multiply" opacity="0.1">
<path d="M600.587 440.231L563.788 450.092L561.837 442.809L598.635 432.948L600.587 440.231Z" fill="#242B52"/>
</g>
<path opacity="0.2" d="M596.332 424.341L559.533 434.202L557.902 428.116L594.701 418.255L596.332 424.341Z" fill="white"/>
<path d="M570.794 436.722C572.774 444.102 569.995 451.252 564.595 452.692C559.195 454.132 553.216 449.332 551.246 441.962C549.266 434.582 552.046 427.432 557.445 425.992C562.845 424.552 568.825 429.352 570.794 436.722Z" fill="#5D6E81"/>
<g style="mix-blend-mode:multiply" opacity="0.2">
<path d="M565.465 438.152C566.575 442.292 565.015 446.302 561.985 447.112C558.955 447.922 555.606 445.222 554.496 441.092C553.386 436.962 554.946 432.942 557.975 432.132C561.005 431.322 564.355 434.022 565.465 438.152Z" fill="#242B52"/>
</g>
<g style="mix-blend-mode:multiply" opacity="0.2">
<path d="M576.974 432.732C574.534 428.852 567.455 423.312 562.055 424.762L594.132 416.162L601.292 442.872L576.974 449.392C582.373 447.942 580.323 438.052 576.974 432.742V432.732Z" fill="#242B52"/>
</g>
</g>
<path d="M597.83 466.94C591.466 450.447 596.03 433.325 608.024 428.697C620.019 424.069 634.901 433.687 641.266 450.181C647.63 466.674 643.066 483.796 631.072 488.424C619.077 493.052 604.195 483.433 597.83 466.94Z" fill="#242B52"/>
<mask id="mask5_953_37370" style="mask-type:luminance" maskUnits="userSpaceOnUse" x="594" y="427" width="51" height="63">
<path d="M597.83 466.94C591.466 450.447 596.03 433.325 608.024 428.697C620.019 424.069 634.901 433.687 641.266 450.181C647.63 466.674 643.066 483.796 631.072 488.424C619.077 493.052 604.195 483.433 597.83 466.94Z" fill="white"/>
</mask>
<g mask="url(#mask5_953_37370)">
<g style="mix-blend-mode:multiply" opacity="0.2">
<path d="M608.869 471.404C596.22 459.055 593.246 441.586 602.226 432.386C611.207 423.185 628.741 425.738 641.391 438.087C654.04 450.437 657.014 467.906 648.033 477.106C639.053 486.306 621.519 483.754 608.869 471.404Z" fill="#242B52"/>
</g>
<g style="mix-blend-mode:multiply" opacity="0.2">
<path d="M616.887 471.319C601.547 462.533 594.291 446.367 600.681 435.211C607.07 424.054 624.686 422.131 640.026 430.916C655.366 439.702 662.622 455.868 656.232 467.024C649.842 478.181 632.227 480.104 616.887 471.319Z" fill="#242B52"/>
</g>
<path d="M666.637 460.39L629.839 470.251L622.683 443.543L659.482 433.682L666.637 460.39Z" fill="#43596D"/>
<g style="mix-blend-mode:multiply" opacity="0.1">
<path d="M665.924 457.732L629.125 467.593L627.173 460.31L663.972 450.449L665.924 457.732Z" fill="#242B52"/>
</g>
<path opacity="0.2" d="M661.671 441.851L624.872 451.712L623.242 445.627L660.041 435.766L661.671 441.851Z" fill="white"/>
<path d="M636.139 454.233C638.119 461.613 635.339 468.763 629.94 470.203C624.54 471.653 618.561 466.843 616.591 459.473C614.611 452.093 617.391 444.943 622.79 443.503C628.19 442.053 634.169 446.863 636.139 454.233Z" fill="#5D6E81"/>
<g style="mix-blend-mode:multiply" opacity="0.2">
<path d="M630.81 455.662C631.919 459.802 630.36 463.812 627.33 464.622C624.3 465.432 620.95 462.732 619.84 458.602C618.731 454.462 620.29 450.452 623.32 449.642C626.35 448.832 629.7 451.532 630.81 455.662Z" fill="#242B52"/>
</g>
<g style="mix-blend-mode:multiply" opacity="0.2">
<path d="M642.309 450.242C639.869 446.362 632.789 440.822 627.39 442.272L659.467 433.672L666.627 460.382L642.309 466.902C647.708 465.452 645.658 455.562 642.309 450.252V450.242Z" fill="#242B52"/>
</g>
</g>
<path d="M549.866 485.733C549.866 492.253 554.156 498.683 559.445 500.103C564.735 501.523 569.025 497.383 569.025 490.863C569.025 484.343 564.735 477.913 559.445 476.493C554.156 475.073 549.866 479.213 549.866 485.733Z" fill="#242B52"/>
<mask id="mask6_953_37370" style="mask-type:luminance" maskUnits="userSpaceOnUse" x="549" y="476" width="21" height="25">
<path d="M549.866 485.733C549.866 492.253 554.156 498.683 559.445 500.103C564.735 501.523 569.025 497.383 569.025 490.863C569.025 484.343 564.735 477.913 559.445 476.493C554.156 475.073 549.866 479.213 549.866 485.733Z" fill="white"/>
</mask>
<g mask="url(#mask6_953_37370)">
<g style="mix-blend-mode:multiply" opacity="0.2">
<path d="M551.816 488.513C554.525 494.443 561.105 498.503 566.504 497.593C571.904 496.683 574.084 491.133 571.364 485.213C568.654 479.283 562.075 475.223 556.675 476.133C551.276 477.043 549.096 482.593 551.816 488.513Z" fill="#242B52"/>
</g>
<g style="mix-blend-mode:multiply" opacity="0.2">
<path d="M553.856 489.433C557.965 494.493 565.355 496.783 570.344 494.543C575.344 492.303 576.064 486.393 571.954 481.333C567.845 476.273 560.455 473.983 555.466 476.223C550.466 478.463 549.746 484.373 553.856 489.433Z" fill="#242B52"/>
</g>
</g>
<path d="M604.742 500.433C604.742 506.953 609.031 513.383 614.321 514.803C619.611 516.223 623.9 512.083 623.9 505.563C623.9 499.043 619.611 492.613 614.321 491.193C609.031 489.773 604.742 493.913 604.742 500.433Z" fill="#242B52"/>
<mask id="mask7_953_37370" style="mask-type:luminance" maskUnits="userSpaceOnUse" x="604" y="490" width="20" height="26">
<path d="M604.742 500.433C604.742 506.953 609.031 513.383 614.321 514.803C619.611 516.223 623.9 512.083 623.9 505.563C623.9 499.043 619.611 492.613 614.321 491.193C609.031 489.773 604.742 493.913 604.742 500.433Z" fill="white"/>
</mask>
<g mask="url(#mask7_953_37370)">
<g style="mix-blend-mode:multiply" opacity="0.2">
<path d="M606.691 503.212C609.401 509.142 615.981 513.202 621.38 512.292C626.78 511.382 628.96 505.832 626.24 499.912C623.52 493.992 616.951 489.922 611.551 490.832C606.152 491.742 603.972 497.292 606.691 503.212Z" fill="#242B52"/>
</g>
<g style="mix-blend-mode:multiply" opacity="0.2">
<path d="M608.741 504.132C612.851 509.192 620.24 511.483 625.23 509.243C630.23 507.003 630.95 501.092 626.84 496.032C622.73 490.972 615.341 488.682 610.351 490.922C605.352 493.162 604.632 499.072 608.741 504.132Z" fill="#242B52"/>
</g>
</g>
<path d="M577.304 424.082C577.304 430.602 581.594 437.032 586.883 438.452C592.173 439.872 596.462 435.732 596.462 429.212C596.462 422.692 592.173 416.262 586.883 414.842C581.594 413.422 577.304 417.562 577.304 424.082Z" fill="#242B52"/>
<mask id="mask8_953_37370" style="mask-type:luminance" maskUnits="userSpaceOnUse" x="577" y="414" width="20" height="25">
<path d="M577.304 424.082C577.304 430.602 581.594 437.032 586.883 438.452C592.173 439.872 596.462 435.732 596.462 429.212C596.462 422.692 592.173 416.262 586.883 414.842C581.594 413.422 577.304 417.562 577.304 424.082Z" fill="white"/>
</mask>
<g mask="url(#mask8_953_37370)">
<g style="mix-blend-mode:multiply" opacity="0.2">
<path d="M579.253 426.862C581.963 432.792 588.543 436.852 593.942 435.942C599.342 435.032 601.522 429.482 598.802 423.562C596.092 417.632 589.513 413.572 584.113 414.482C578.714 415.392 576.534 420.942 579.253 426.862Z" fill="#242B52"/>
</g>
<g style="mix-blend-mode:multiply" opacity="0.2">
<path d="M581.304 427.782C585.413 432.842 592.803 435.132 597.792 432.892C602.792 430.652 603.512 424.742 599.402 419.682C595.292 414.622 587.903 412.332 582.913 414.572C577.914 416.812 577.194 422.722 581.304 427.782Z" fill="#242B52"/>
</g>
</g>
<path d="M555.866 392.292C555.866 398.812 560.155 405.242 565.445 406.662C570.734 408.082 575.024 403.942 575.024 397.422C575.024 390.902 570.734 384.472 565.445 383.052C560.155 381.632 555.866 385.772 555.866 392.292Z" fill="#242B52"/>
<mask id="mask9_953_37370" style="mask-type:luminance" maskUnits="userSpaceOnUse" x="555" y="382" width="21" height="25">
<path d="M555.866 392.292C555.866 398.812 560.155 405.242 565.445 406.662C570.734 408.082 575.024 403.942 575.024 397.422C575.024 390.902 570.734 384.472 565.445 383.052C560.155 381.632 555.866 385.772 555.866 392.292Z" fill="white"/>
</mask>
<g mask="url(#mask9_953_37370)">
<g style="mix-blend-mode:multiply" opacity="0.2">
<path d="M557.815 395.072C560.525 401.002 567.104 405.062 572.504 404.152C577.904 403.242 580.083 397.692 577.364 391.772C574.654 385.842 568.074 381.782 562.675 382.692C557.275 383.602 555.095 389.152 557.815 395.072Z" fill="#242B52"/>
</g>
<g style="mix-blend-mode:multiply" opacity="0.2">
<path d="M559.855 395.992C563.965 401.052 571.354 403.342 576.344 401.102C581.344 398.862 582.063 392.952 577.954 387.892C573.844 382.832 566.455 380.542 561.465 382.782C556.465 385.022 555.746 390.932 559.855 395.992Z" fill="#242B52"/>
</g>
</g>
<path d="M598.742 403.783C598.742 410.303 603.032 416.733 608.321 418.153C613.611 419.573 617.9 415.433 617.9 408.913C617.9 402.393 613.611 395.963 608.321 394.543C603.032 393.123 598.742 397.263 598.742 403.783Z" fill="#242B52"/>
<mask id="mask10_953_37370" style="mask-type:luminance" maskUnits="userSpaceOnUse" x="598" y="394" width="20" height="25">
<path d="M598.742 403.783C598.742 410.303 603.032 416.733 608.321 418.153C613.611 419.573 617.9 415.433 617.9 408.913C617.9 402.393 613.611 395.963 608.321 394.543C603.032 393.123 598.742 397.263 598.742 403.783Z" fill="white"/>
</mask>
<g mask="url(#mask10_953_37370)">
<g style="mix-blend-mode:multiply" opacity="0.2">
<path d="M600.692 406.563C603.402 412.493 609.981 416.553 615.381 415.643C620.78 414.733 622.96 409.183 620.24 403.263C617.531 397.333 610.951 393.273 605.552 394.183C600.152 395.093 597.972 400.643 600.692 406.563Z" fill="#242B52"/>
</g>
<g style="mix-blend-mode:multiply" opacity="0.2">
<path d="M602.742 407.483C606.852 412.543 614.241 414.833 619.231 412.593C624.23 410.353 624.95 404.443 620.84 399.383C616.731 394.323 609.341 392.033 604.352 394.273C599.352 396.513 598.632 402.423 602.742 407.483Z" fill="#242B52"/>
</g>
</g>
<path d="M577.304 398.042C577.304 404.562 581.594 410.992 586.883 412.412C592.173 413.832 596.462 409.692 596.462 403.172C596.462 396.652 592.173 390.222 586.883 388.802C581.594 387.382 577.304 391.522 577.304 398.042Z" fill="#242B52"/>
<mask id="mask11_953_37370" style="mask-type:luminance" maskUnits="userSpaceOnUse" x="577" y="388" width="20" height="25">
<path d="M577.304 398.042C577.304 404.562 581.594 410.992 586.883 412.412C592.173 413.832 596.462 409.692 596.462 403.172C596.462 396.652 592.173 390.222 586.883 388.802C581.594 387.382 577.304 391.522 577.304 398.042Z" fill="white"/>
</mask>
<g mask="url(#mask11_953_37370)">
<g style="mix-blend-mode:multiply" opacity="0.2">
<path d="M579.253 400.822C581.963 406.752 588.543 410.812 593.942 409.902C599.342 408.992 601.522 403.442 598.802 397.522C596.092 391.592 589.513 387.532 584.113 388.442C578.714 389.352 576.534 394.902 579.253 400.822Z" fill="#242B52"/>
</g>
<g style="mix-blend-mode:multiply" opacity="0.2">
<path d="M581.304 401.742C585.413 406.802 592.803 409.092 597.792 406.852C602.792 404.612 603.512 398.702 599.402 393.642C595.292 388.582 587.903 386.292 582.913 388.532C577.914 390.772 577.194 396.682 581.304 401.742Z" fill="#242B52"/>
</g>
<path d="M598.562 400.286L591.076 402.292L589.618 396.854L597.105 394.848L598.562 400.286Z" fill="#7D8191"/>
<g style="mix-blend-mode:multiply" opacity="0.1">
<path d="M598.434 399.786L590.948 401.792L590.552 400.314L598.038 398.308L598.434 399.786Z" fill="#242B52"/>
</g>
<path opacity="0.2" d="M597.577 396.547L590.091 398.553L589.759 397.317L597.246 395.311L597.577 396.547Z" fill="white"/>
<path d="M592.363 399.052C592.763 400.552 592.203 402.012 591.103 402.302C590.003 402.592 588.783 401.622 588.383 400.122C587.983 398.622 588.543 397.162 589.643 396.872C590.743 396.582 591.953 397.552 592.363 399.052Z" fill="#B4BDC5"/>
<g style="mix-blend-mode:multiply" opacity="0.2">
<path d="M591.283 399.342C591.513 400.182 591.193 401.002 590.573 401.162C589.953 401.332 589.273 400.782 589.053 399.932C588.823 399.092 589.143 398.272 589.763 398.112C590.383 397.942 591.063 398.492 591.283 399.342Z" fill="#242B52"/>
</g>
<g style="mix-blend-mode:multiply" opacity="0.2">
<path d="M593.622 398.232C593.122 397.442 591.682 396.312 590.582 396.612L597.112 394.862L598.572 400.292L593.622 401.622C594.722 401.332 594.302 399.312 593.622 398.232Z" fill="#242B52"/>
</g>
</g>
<path d="M573.285 500.898C569.304 490.583 572.163 479.872 579.67 476.976C587.176 474.079 596.489 480.093 600.469 490.409C604.449 500.724 601.591 511.434 594.084 514.331C586.577 517.227 577.265 511.213 573.285 500.898Z" fill="#242B52"/>
<mask id="mask12_953_37370" style="mask-type:luminance" maskUnits="userSpaceOnUse" x="571" y="476" width="32" height="40">
<path d="M573.285 500.898C569.304 490.583 572.163 479.872 579.67 476.976C587.176 474.079 596.489 480.093 600.469 490.409C604.449 500.724 601.591 511.434 594.084 514.331C586.577 517.227 577.265 511.213 573.285 500.898Z" fill="white"/>
</mask>
<g mask="url(#mask12_953_37370)">
<g style="mix-blend-mode:multiply" opacity="0.2">
<path d="M580.215 503.625C572.303 495.902 570.446 484.973 576.067 479.216C581.688 473.458 592.658 475.051 600.57 482.774C608.481 490.497 610.338 501.426 604.718 507.184C599.097 512.941 588.126 511.348 580.215 503.625Z" fill="#242B52"/>
</g>
<g style="mix-blend-mode:multiply" opacity="0.2">
<path d="M585.207 503.639C575.612 498.145 571.077 488.03 575.076 481.048C579.075 474.065 590.094 472.859 599.688 478.353C609.283 483.848 613.818 493.962 609.819 500.945C605.82 507.927 594.801 509.134 585.207 503.639Z" fill="#242B52"/>
</g>
<path d="M610.176 495.453L594.51 499.651L591.464 488.282L607.13 484.084L610.176 495.453Z" fill="#7D8191"/>
<g style="mix-blend-mode:multiply" opacity="0.1">
<path d="M609.87 494.33L594.204 498.528L593.373 495.428L609.039 491.23L609.87 494.33Z" fill="#242B52"/>
</g>
<path opacity="0.2" d="M608.065 487.575L592.399 491.773L591.705 489.184L607.372 484.986L608.065 487.575Z" fill="white"/>
<path d="M597.192 492.833C598.032 495.973 596.852 499.012 594.552 499.632C592.252 500.252 589.712 498.202 588.872 495.062C588.032 491.922 589.212 488.882 591.512 488.262C593.812 487.642 596.352 489.693 597.192 492.833Z" fill="#B4BDC5"/>
<g style="mix-blend-mode:multiply" opacity="0.2">
<path d="M594.922 493.443C595.392 495.203 594.732 496.913 593.442 497.263C592.152 497.613 590.722 496.463 590.252 494.703C589.782 492.943 590.442 491.233 591.732 490.883C593.022 490.533 594.452 491.683 594.922 493.443Z" fill="#242B52"/>
</g>
<g style="mix-blend-mode:multiply" opacity="0.2">
<path d="M599.822 491.132C598.782 489.482 595.772 487.123 593.473 487.743L607.132 484.083L610.181 495.453L599.832 498.223C602.132 497.603 601.262 493.392 599.832 491.132H599.822Z" fill="#242B52"/>
</g>
</g>
<path d="M641.789 391.443V402.403L634.569 404.393L628.66 394.963L641.789 391.443Z" fill="#001230"/>
<path d="M151.208 582.533V390.863C151.208 348.993 182.875 306.553 221.942 296.093L384.279 252.593C423.346 242.123 455.014 267.583 455.014 309.453V501.123C455.014 542.993 423.346 585.433 384.279 595.893L221.942 639.393C182.875 649.863 151.208 624.403 151.208 582.533Z" fill="#43596D"/>
<mask id="mask13_953_37370" style="mask-type:luminance" maskUnits="userSpaceOnUse" x="151" y="250" width="305" height="392">
<path d="M151.208 582.533V390.863C151.208 348.993 182.875 306.553 221.942 296.093L384.279 252.593C423.346 242.123 455.014 267.583 455.014 309.453V501.123C455.014 542.993 423.346 585.433 384.279 595.893L221.942 639.393C182.875 649.863 151.208 624.403 151.208 582.533Z" fill="white"/>
</mask>
<g mask="url(#mask13_953_37370)">
<path d="M106.342 570.483V378.813C106.342 336.943 138.009 294.503 177.076 284.043L339.413 240.543C378.48 230.073 410.147 255.533 410.147 297.403V489.073C410.147 530.943 378.48 573.383 339.413 583.843L177.076 627.343C138.009 637.813 106.342 612.353 106.342 570.483Z" fill="#001231"/>
</g>
<path d="M326.394 375.133L331.354 362.623L304.166 354.683C300.966 353.573 297.406 353.473 293.717 354.463L276.148 359.173L257.17 364.263L239.611 368.973C234.901 370.233 230.382 373.143 226.552 377.383C206.274 399.793 194.544 431.083 195.194 461.103C195.674 483.703 203.234 503.073 216.473 515.643C223.252 522.083 231.132 526.353 239.691 528.393L239.671 528.443L262.849 535.213L265.729 527.953C266.099 527.863 266.659 527.713 266.659 527.713C285.757 522.593 303.716 508.613 317.215 488.353C330.714 468.083 338.153 443.963 338.153 420.423C338.153 402.943 333.953 387.303 326.384 375.153L326.394 375.133Z" fill="#242B52"/>
<mask id="mask14_953_37370" style="mask-type:luminance" maskUnits="userSpaceOnUse" x="195" y="353" width="144" height="183">
<path d="M326.394 375.133L331.354 362.623L304.166 354.683C300.966 353.573 297.406 353.473 293.717 354.463L276.148 359.173L257.17 364.263L239.611 368.973C234.901 370.233 230.382 373.143 226.552 377.383C206.274 399.793 194.544 431.083 195.194 461.103C195.674 483.703 203.234 503.073 216.473 515.643C223.252 522.083 231.132 526.353 239.691 528.393L239.671 528.443L262.849 535.213L265.729 527.953C266.099 527.863 266.659 527.713 266.659 527.713C285.757 522.593 303.716 508.613 317.215 488.353C330.714 468.083 338.153 443.963 338.153 420.423C338.153 402.943 333.953 387.303 326.384 375.153L326.394 375.133Z" fill="white"/>
</mask>
<g mask="url(#mask14_953_37370)">
<g style="mix-blend-mode:multiply" opacity="0.2">
<path d="M179.275 461.003L301.764 493.827L290.657 535.284L168.168 502.461L179.275 461.003Z" fill="#242B52"/>
</g>
<path opacity="0.1" d="M204.029 326.184L384.508 374.547L375.421 408.461L194.943 360.098L204.029 326.184Z" fill="white"/>
<path opacity="0.1" d="M233.892 303.916L414.372 352.274L405.285 386.187L224.805 337.829L233.892 303.916Z" fill="white"/>
</g>
<path d="M335.593 364.273C331.784 362.113 327.284 361.633 322.584 362.893L305.016 367.603V373.163L286.037 378.253V372.693L268.479 377.403C263.769 378.663 259.249 381.573 255.42 385.813C235.141 408.223 223.412 439.513 224.062 469.533C224.542 492.133 232.102 511.503 245.341 524.073C258.579 536.643 276.028 541.033 294.476 536.423C294.826 536.333 295.536 536.153 295.536 536.153C314.635 531.033 332.594 517.053 346.092 496.793C359.591 476.523 367.031 452.403 367.031 428.863C367.031 399.603 355.282 375.473 335.603 364.303L335.593 364.273Z" fill="#43596D"/>
<path d="M305.016 373.163L299.456 369.783L292.617 370.993L287.437 362.463L305.016 367.603V373.163Z" fill="#001230"/>
<path d="M286.037 378.243L305.016 373.163L299.456 369.783L292.617 370.993L287.437 362.463L268.459 367.553L286.037 372.693V378.243Z" fill="#242B52"/>
<path d="M331.264 373.323C328.734 371.893 325.734 371.573 322.584 372.423L268.469 386.923C265.309 387.773 262.289 389.703 259.749 392.523C241.661 412.513 231.202 440.423 231.772 467.203C232.202 487.343 238.951 504.613 250.76 515.833C262.569 527.053 278.128 530.963 294.567 526.863C294.887 526.783 295.516 526.613 295.516 526.613C312.545 522.053 328.564 509.583 340.613 491.503C352.662 473.423 359.291 451.913 359.291 430.913C359.291 404.813 348.812 383.293 331.254 373.323H331.264Z" fill="#242B52"/>
<mask id="mask15_953_37370" style="mask-type:luminance" maskUnits="userSpaceOnUse" x="231" y="371" width="129" height="158">
<path d="M331.264 373.323C328.734 371.893 325.734 371.573 322.584 372.423L268.469 386.923C265.309 387.773 262.289 389.703 259.749 392.523C241.661 412.513 231.202 440.423 231.772 467.203C232.202 487.343 238.951 504.613 250.76 515.833C262.569 527.053 278.128 530.963 294.567 526.863C294.887 526.783 295.516 526.613 295.516 526.613C312.545 522.053 328.564 509.583 340.613 491.503C352.662 473.423 359.291 451.913 359.291 430.913C359.291 404.813 348.812 383.293 331.254 373.323H331.264Z" fill="white"/>
</mask>
<g mask="url(#mask15_953_37370)">
<path d="M310.125 364.793C307.596 363.363 304.596 363.043 301.446 363.893L247.33 378.393C244.171 379.243 241.151 381.173 238.611 383.993C220.523 403.983 210.063 431.893 210.633 458.673C211.063 478.813 217.813 496.083 229.622 507.303C241.431 518.523 256.989 522.433 273.428 518.333C273.748 518.253 274.378 518.083 274.378 518.083C291.407 513.523 307.425 501.053 319.474 482.973C331.524 464.893 338.153 443.383 338.153 422.383C338.153 396.283 327.674 374.763 310.115 364.793H310.125Z" fill="#404079"/>
<path d="M303.486 362.813C300.956 361.383 297.956 361.063 294.807 361.913L240.691 376.413C237.531 377.263 234.511 379.193 231.971 382.013C213.883 402.003 203.424 429.913 203.994 456.693C204.424 476.833 211.173 494.103 222.982 505.323C234.791 516.543 250.35 520.453 266.789 516.353C267.109 516.273 267.739 516.103 267.739 516.103C284.767 511.543 300.786 499.073 312.835 480.993C324.884 462.913 331.514 441.403 331.514 420.403C331.514 394.303 321.034 372.783 303.476 362.813H303.486Z" fill="#001230"/>
<g style="mix-blend-mode:multiply" opacity="0.2">
<path d="M290.089 361.798L412.579 394.618L390.273 477.861L267.783 445.041L290.089 361.798Z" fill="#242B52"/>
</g>
<g style="mix-blend-mode:multiply" opacity="0.2">
<path d="M292.246 317.326L414.736 350.146L396.468 418.321L273.978 385.501L292.246 317.326Z" fill="#242B52"/>
</g>
<path opacity="0.1" d="M217.17 484.094L397.649 532.457L388.562 566.371L208.084 518.008L217.17 484.094Z" fill="white"/>
<path d="M222.179 443.138C210.561 440.025 204.59 424.635 208.842 408.765C213.094 392.894 225.959 382.552 237.577 385.666C249.195 388.779 255.166 404.168 250.914 420.039C246.662 435.91 233.797 446.252 222.179 443.138Z" fill="#43596D"/>
<path d="M237.584 385.68L336.903 412.294L321.504 469.767L222.186 443.152L237.584 385.68Z" fill="#001240"/>
<g style="mix-blend-mode:multiply" opacity="0.4">
<path d="M227.924 421.764L327.242 448.378L323.042 464.055L223.724 437.441L227.924 421.764Z" fill="#242B52"/>
</g>
<path opacity="0.1" d="M236.389 390.169L335.707 416.784L332.198 429.882L232.88 403.267L236.389 390.169Z" fill="white"/>
<path opacity="0.2" d="M213.513 398.053L232.872 403.253L236.391 390.133L225.192 387.093C220.792 389.253 216.633 393.093 213.513 398.053Z" fill="white"/>
<path d="M321.271 469.702C309.653 466.589 303.682 451.2 307.934 435.33C312.187 419.459 325.053 409.117 336.671 412.23C348.289 415.343 354.26 430.732 350.007 446.603C345.754 462.473 332.889 472.815 321.271 469.702Z" fill="#43596D"/>
<path opacity="0.2" d="M324.075 456.754C318.037 454.424 315.738 445.806 318.941 437.506C322.144 429.205 329.636 424.365 335.674 426.695C341.713 429.025 344.011 437.643 340.808 445.943C337.605 454.244 330.113 459.084 324.075 456.754Z" fill="white"/>
<path d="M323.602 453.809C318.532 451.853 316.603 444.615 319.294 437.644C321.984 430.673 328.274 426.607 333.344 428.563C338.414 430.52 340.343 437.757 337.653 444.728C334.963 451.699 328.672 455.765 323.602 453.809Z" fill="#242B52"/>
<mask id="mask16_953_37370" style="mask-type:luminance" maskUnits="userSpaceOnUse" x="318" y="428" width="21" height="27">
<path d="M323.602 453.809C318.532 451.853 316.603 444.615 319.294 437.644C321.984 430.673 328.274 426.607 333.344 428.563C338.414 430.52 340.343 437.757 337.653 444.728C334.963 451.699 328.672 455.765 323.602 453.809Z" fill="white"/>
</mask>
<g mask="url(#mask16_953_37370)">
<g style="mix-blend-mode:multiply" opacity="0.2">
<path d="M336.743 441.423C333.803 447.853 326.664 452.273 320.805 451.283C314.945 450.293 312.585 444.273 315.525 437.843C318.465 431.413 325.604 426.993 331.464 427.983C337.323 428.973 339.683 434.993 336.743 441.423Z" fill="#242B52"/>
</g>
<g style="mix-blend-mode:multiply" opacity="0.4">
<path d="M334.533 442.423C330.074 447.913 322.054 450.403 316.635 447.973C311.205 445.543 310.425 439.123 314.895 433.633C319.355 428.143 327.374 425.653 332.794 428.083C338.223 430.513 339.003 436.933 334.533 442.423Z" fill="#242B52"/>
</g>
</g>
<path d="M247.81 466.193C246.25 472.013 248.44 477.643 252.7 478.783C256.959 479.923 261.669 476.133 263.229 470.323C264.789 464.503 262.599 458.873 258.339 457.733C254.08 456.593 249.37 460.383 247.81 466.193Z" fill="#43596D"/>
<path d="M258.34 457.738L314.872 472.886L309.23 493.943L252.699 478.795L258.34 457.738Z" fill="#001240"/>
<g style="mix-blend-mode:multiply" opacity="0.4">
<path d="M254.8 470.963L311.331 486.111L309.791 491.859L253.26 476.71L254.8 470.963Z" fill="#242B52"/>
</g>
<path opacity="0.1" d="M257.902 459.383L314.433 474.531L313.146 479.332L256.615 464.183L257.902 459.383Z" fill="white"/>
<g style="mix-blend-mode:multiply" opacity="0.1">
<path d="M248.64 475.453L253.27 476.683L254.79 470.943L247.35 468.953C247.17 471.383 247.64 473.673 248.64 475.463V475.453Z" fill="#242B52"/>
</g>
<path opacity="0.2" d="M249.519 462.263L256.61 464.173L257.9 459.363L253.799 458.253C252.189 459.043 250.659 460.453 249.519 462.273V462.263Z" fill="white"/>
<path d="M304.256 481.323C302.696 487.143 304.886 492.773 309.145 493.913C313.405 495.053 318.114 491.263 319.674 485.453C321.234 479.633 319.044 474.003 314.785 472.863C310.525 471.723 305.816 475.513 304.256 481.323Z" fill="#43596D"/>
<path opacity="0.2" d="M317.555 482.003C317.555 485.663 315.155 489.273 312.185 490.063C309.215 490.853 306.816 488.533 306.816 484.883C306.816 481.233 309.215 477.613 312.185 476.823C315.155 476.033 317.555 478.343 317.555 482.003Z" fill="white"/>
<path d="M315.595 482.152C315.595 484.872 313.805 487.552 311.605 488.142C309.395 488.732 307.615 487.012 307.615 484.292C307.615 481.572 309.405 478.892 311.605 478.302C313.815 477.712 315.595 479.432 315.595 482.152Z" fill="#242B52"/>
<mask id="mask17_953_37370" style="mask-type:luminance" maskUnits="userSpaceOnUse" x="307" y="478" width="9" height="11">
<path d="M315.595 482.152C315.595 484.872 313.805 487.552 311.605 488.142C309.395 488.732 307.615 487.012 307.615 484.292C307.615 481.572 309.405 478.892 311.605 478.302C313.815 477.712 315.595 479.432 315.595 482.152Z" fill="white"/>
</mask>
<g mask="url(#mask17_953_37370)">
<g style="mix-blend-mode:multiply" opacity="0.2">
<path d="M314.785 483.313C313.655 485.783 310.915 487.483 308.666 487.103C306.416 486.723 305.506 484.413 306.636 481.943C307.766 479.473 310.505 477.773 312.755 478.153C315.005 478.533 315.915 480.843 314.785 483.313Z" fill="#242B52"/>
</g>
<g style="mix-blend-mode:multiply" opacity="0.4">
<path d="M313.935 483.692C312.225 485.802 309.145 486.752 307.055 485.822C304.976 484.892 304.676 482.422 306.386 480.312C308.095 478.202 311.175 477.252 313.265 478.182C315.345 479.112 315.645 481.582 313.935 483.692Z" fill="#242B52"/>
</g>
</g>
<path d="M203.461 451.633L300.181 477.551L290.528 513.58L193.808 487.662L203.461 451.633Z" fill="#001240"/>
<g style="mix-blend-mode:multiply" opacity="0.4">
<path d="M197.395 474.257L294.115 500.175L291.48 510.008L194.76 484.09L197.395 474.257Z" fill="#242B52"/>
</g>
<path opacity="0.1" d="M202.696 454.44L299.416 480.358L297.216 488.568L200.496 462.65L202.696 454.44Z" fill="white"/>
<path d="M290.376 513.522C283.095 511.571 279.353 501.924 282.019 491.975C284.685 482.026 292.749 475.542 300.03 477.493C307.311 479.444 311.053 489.091 308.387 499.04C305.721 508.989 297.657 515.472 290.376 513.522Z" fill="#43596D"/>
<path opacity="0.2" d="M291.272 506.782C286.79 505.052 285.084 498.654 287.462 492.491C289.839 486.329 295.4 482.735 299.883 484.465C304.365 486.195 306.071 492.593 303.694 498.755C301.316 504.918 295.755 508.511 291.272 506.782Z" fill="white"/>
<path d="M301.426 493.413C301.426 498.063 298.366 502.653 294.597 503.663C290.827 504.673 287.767 501.723 287.767 497.073C287.767 492.423 290.827 487.833 294.597 486.823C298.366 485.813 301.426 488.763 301.426 493.413Z" fill="#242B52"/>
<mask id="mask18_953_37370" style="mask-type:luminance" maskUnits="userSpaceOnUse" x="287" y="486" width="15" height="18">
<path d="M301.426 493.413C301.426 498.063 298.366 502.653 294.597 503.663C290.827 504.673 287.767 501.723 287.767 497.073C287.767 492.423 290.827 487.833 294.597 486.823C298.366 485.813 301.426 488.763 301.426 493.413Z" fill="white"/>
</mask>
<g mask="url(#mask18_953_37370)">
<g style="mix-blend-mode:multiply" opacity="0.2">
<path d="M300.036 495.393C298.096 499.623 293.407 502.523 289.557 501.873C285.707 501.223 284.147 497.263 286.087 493.033C288.027 488.803 292.717 485.903 296.566 486.553C300.416 487.203 301.976 491.163 300.036 495.393Z" fill="#242B52"/>
</g>
<g style="mix-blend-mode:multiply" opacity="0.4">
<path d="M298.576 496.043C295.646 499.653 290.377 501.283 286.807 499.693C283.237 498.093 282.727 493.883 285.657 490.273C288.587 486.663 293.856 485.033 297.426 486.623C300.996 488.223 301.506 492.433 298.576 496.043Z" fill="#242B52"/>
</g>
</g>
<path d="M218.513 404.583C216.953 410.403 219.143 416.033 223.402 417.173C227.662 418.313 232.371 414.523 233.931 408.713C235.491 402.893 233.301 397.263 229.042 396.123C224.782 394.983 220.072 398.773 218.513 404.583Z" fill="#43596D"/>
<path d="M229.027 396.121L285.558 411.27L279.917 432.327L223.386 417.179L229.027 396.121Z" fill="#001240"/>
<g style="mix-blend-mode:multiply" opacity="0.4">
<path d="M225.487 409.346L282.018 424.495L280.478 430.242L223.947 415.093L225.487 409.346Z" fill="#242B52"/>
</g>
<path opacity="0.1" d="M228.588 397.776L285.12 412.924L283.833 417.725L227.302 402.576L228.588 397.776Z" fill="white"/>
<path d="M274.948 419.703C273.388 425.523 275.578 431.153 279.838 432.293C284.097 433.433 288.807 429.643 290.367 423.833C291.927 418.013 289.737 412.383 285.477 411.243C281.217 410.103 276.508 413.893 274.948 419.703Z" fill="#43596D"/>
<path opacity="0.2" d="M288.247 420.393C288.247 424.053 285.847 427.663 282.878 428.453C279.908 429.253 277.508 426.933 277.508 423.273C277.508 419.613 279.908 416.003 282.878 415.213C285.847 414.413 288.247 416.733 288.247 420.393Z" fill="white"/>
<path d="M286.297 420.543C286.297 423.263 284.507 425.943 282.307 426.533C280.097 427.123 278.317 425.403 278.317 422.683C278.317 419.963 280.107 417.283 282.307 416.693C284.517 416.103 286.297 417.823 286.297 420.543Z" fill="#242B52"/>
<mask id="mask19_953_37370" style="mask-type:luminance" maskUnits="userSpaceOnUse" x="278" y="416" width="9" height="11">
<path d="M286.297 420.543C286.297 423.263 284.507 425.943 282.307 426.533C280.097 427.123 278.317 425.403 278.317 422.683C278.317 419.963 280.107 417.283 282.307 416.693C284.517 416.103 286.297 417.823 286.297 420.543Z" fill="white"/>
</mask>
<g mask="url(#mask19_953_37370)">
<g style="mix-blend-mode:multiply" opacity="0.2">
<path d="M285.477 421.693C284.347 424.163 281.608 425.863 279.358 425.483C277.108 425.103 276.198 422.793 277.328 420.323C278.458 417.853 281.198 416.153 283.447 416.533C285.697 416.913 286.607 419.223 285.477 421.693Z" fill="#242B52"/>
</g>
<g style="mix-blend-mode:multiply" opacity="0.4">
<path d="M284.627 422.083C282.917 424.193 279.838 425.143 277.748 424.213C275.668 423.283 275.368 420.813 277.078 418.703C278.788 416.593 281.867 415.643 283.957 416.573C286.037 417.503 286.337 419.973 284.627 422.083Z" fill="#242B52"/>
</g>
</g>
<path d="M234.221 372.623C232.661 378.443 234.851 384.073 239.111 385.213C243.371 386.353 248.08 382.563 249.64 376.753C251.2 370.933 249.01 365.303 244.75 364.163C240.491 363.023 235.781 366.813 234.221 372.623Z" fill="#43596D"/>
<path d="M244.752 364.169L301.283 379.317L295.642 400.374L239.11 385.226L244.752 364.169Z" fill="#001240"/>
<g style="mix-blend-mode:multiply" opacity="0.4">
<path d="M241.202 377.384L297.733 392.532L296.193 398.279L239.662 383.131L241.202 377.384Z" fill="#242B52"/>
</g>
<path opacity="0.1" d="M244.314 365.804L300.845 380.952L299.558 385.753L243.028 370.604L244.314 365.804Z" fill="white"/>
<g style="mix-blend-mode:multiply" opacity="0.1">
<path d="M235.051 381.883L239.681 383.113L241.201 377.373L233.761 375.383C233.581 377.813 234.051 380.103 235.051 381.893V381.883Z" fill="#242B52"/>
</g>
<path d="M290.667 387.743C289.107 393.563 291.297 399.193 295.556 400.333C299.816 401.473 304.526 397.683 306.086 391.873C307.645 386.053 305.455 380.423 301.196 379.283C296.936 378.143 292.227 381.933 290.667 387.743Z" fill="#43596D"/>
<path opacity="0.2" d="M303.966 388.433C303.966 392.093 301.566 395.703 298.596 396.493C295.627 397.283 293.227 394.963 293.227 391.313C293.227 387.663 295.627 384.043 298.596 383.253C301.566 382.463 303.966 384.773 303.966 388.433Z" fill="white"/>
<path d="M302.006 388.573C302.006 391.293 300.216 393.973 298.016 394.563C295.806 395.153 294.026 393.433 294.026 390.713C294.026 387.993 295.816 385.313 298.016 384.723C300.226 384.133 302.006 385.853 302.006 388.573Z" fill="#242B52"/>
<mask id="mask20_953_37370" style="mask-type:luminance" maskUnits="userSpaceOnUse" x="294" y="384" width="9" height="11">
<path d="M302.006 388.573C302.006 391.293 300.216 393.973 298.016 394.563C295.806 395.153 294.026 393.433 294.026 390.713C294.026 387.993 295.816 385.313 298.016 384.723C300.226 384.133 302.006 385.853 302.006 388.573Z" fill="white"/>
</mask>
<g mask="url(#mask20_953_37370)">
<g style="mix-blend-mode:multiply" opacity="0.2">
<path d="M301.196 389.733C300.066 392.203 297.326 393.903 295.077 393.523C292.827 393.143 291.917 390.833 293.047 388.363C294.177 385.893 296.916 384.193 299.166 384.573C301.416 384.953 302.326 387.263 301.196 389.733Z" fill="#242B52"/>
</g>
<g style="mix-blend-mode:multiply" opacity="0.4">
<path d="M300.346 390.123C298.636 392.233 295.556 393.183 293.466 392.253C291.387 391.323 291.087 388.853 292.797 386.743C294.506 384.633 297.586 383.683 299.676 384.613C301.756 385.543 302.056 388.013 300.346 390.123Z" fill="#242B52"/>
</g>
</g>
<path d="M231.521 383.443C229.962 389.263 232.152 394.893 236.411 396.033C240.671 397.173 245.38 393.383 246.94 387.573C248.5 381.753 246.31 376.123 242.051 374.983C237.791 373.843 233.081 377.633 231.521 383.443Z" fill="#43596D"/>
<path d="M242.044 374.989L298.576 390.137L292.934 411.194L236.403 396.046L242.044 374.989Z" fill="#001240"/>
<g style="mix-blend-mode:multiply" opacity="0.4">
<path d="M238.494 388.203L295.025 403.352L293.485 409.099L236.954 393.951L238.494 388.203Z" fill="#242B52"/>
</g>
<path opacity="0.1" d="M241.605 376.623L298.137 391.772L296.85 396.573L240.319 381.424L241.605 376.623Z" fill="white"/>
<g style="mix-blend-mode:multiply" opacity="0.1">
<path d="M232.341 392.703L236.971 393.933L238.491 388.193L231.051 386.203C230.871 388.633 231.341 390.923 232.341 392.713V392.703Z" fill="#242B52"/>
</g>
<path opacity="0.2" d="M233.22 379.513L240.311 381.423L241.601 376.613L237.501 375.503C235.891 376.293 234.36 377.703 233.22 379.523V379.513Z" fill="white"/>
<path d="M287.957 398.573C286.397 404.393 288.587 410.023 292.847 411.163C297.106 412.303 301.816 408.513 303.376 402.703C304.936 396.883 302.746 391.253 298.486 390.113C294.226 388.973 289.517 392.763 287.957 398.573Z" fill="#43596D"/>
<path opacity="0.2" d="M301.256 399.253C301.256 402.913 298.856 406.523 295.887 407.313C292.917 408.103 290.517 405.793 290.517 402.133C290.517 398.473 292.917 394.863 295.887 394.073C298.856 393.283 301.256 395.603 301.256 399.253Z" fill="white"/>
<path d="M299.306 399.402C299.306 402.122 297.516 404.802 295.316 405.392C293.106 405.982 291.326 404.262 291.326 401.542C291.326 398.822 293.116 396.142 295.316 395.552C297.526 394.962 299.306 396.682 299.306 399.402Z" fill="#242B52"/>
<mask id="mask21_953_37370" style="mask-type:luminance" maskUnits="userSpaceOnUse" x="291" y="395" width="9" height="11">
<path d="M299.306 399.402C299.306 402.122 297.516 404.802 295.316 405.392C293.106 405.982 291.326 404.262 291.326 401.542C291.326 398.822 293.116 396.142 295.316 395.552C297.526 394.962 299.306 396.682 299.306 399.402Z" fill="white"/>
</mask>
<g mask="url(#mask21_953_37370)">
<g style="mix-blend-mode:multiply" opacity="0.2">
<path d="M298.486 400.563C297.356 403.033 294.617 404.733 292.367 404.353C290.117 403.973 289.207 401.663 290.337 399.193C291.467 396.723 294.207 395.023 296.456 395.403C298.706 395.783 299.616 398.093 298.486 400.563Z" fill="#242B52"/>
</g>
<g style="mix-blend-mode:multiply" opacity="0.4">
<path d="M297.636 400.942C295.926 403.052 292.847 404.002 290.757 403.072C288.677 402.142 288.377 399.672 290.087 397.562C291.797 395.452 294.876 394.502 296.966 395.432C299.046 396.362 299.346 398.832 297.636 400.942Z" fill="#242B52"/>
</g>
</g>
<path d="M201.938 375.664L258.47 390.813L252.828 411.87L196.297 396.721L201.938 375.664Z" fill="#001240"/>
<g style="mix-blend-mode:multiply" opacity="0.4">
<path d="M198.388 388.889L254.919 404.038L253.379 409.785L196.848 394.636L198.388 388.889Z" fill="#242B52"/>
</g>
<path opacity="0.1" d="M201.5 377.319L258.031 392.467L256.744 397.268L200.213 382.119L201.5 377.319Z" fill="white"/>
<path d="M247.85 399.253C246.29 405.073 248.48 410.703 252.74 411.843C256.999 412.983 261.709 409.193 263.269 403.383C264.829 397.563 262.639 391.933 258.379 390.793C254.12 389.653 249.41 393.443 247.85 399.253Z" fill="#43596D"/>
<path opacity="0.2" d="M261.149 399.933C261.149 403.593 258.749 407.203 255.78 407.993C252.81 408.793 250.41 406.473 250.41 402.813C250.41 399.153 252.81 395.543 255.78 394.753C258.749 393.963 261.149 396.283 261.149 399.933Z" fill="white"/>
<path d="M259.199 400.083C259.199 402.803 257.409 405.483 255.209 406.073C252.999 406.663 251.219 404.943 251.219 402.223C251.219 399.503 253.009 396.823 255.209 396.233C257.409 395.643 259.199 397.363 259.199 400.083Z" fill="#242B52"/>
<mask id="mask22_953_37370" style="mask-type:luminance" maskUnits="userSpaceOnUse" x="251" y="396" width="9" height="11">
<path d="M259.199 400.083C259.199 402.803 257.409 405.483 255.209 406.073C252.999 406.663 251.219 404.943 251.219 402.223C251.219 399.503 253.009 396.823 255.209 396.233C257.409 395.643 259.199 397.363 259.199 400.083Z" fill="white"/>
</mask>
<g mask="url(#mask22_953_37370)">
<g style="mix-blend-mode:multiply" opacity="0.2">
<path d="M258.38 401.242C257.25 403.712 254.51 405.412 252.26 405.032C250.01 404.652 249.1 402.342 250.23 399.872C251.36 397.402 254.1 395.702 256.35 396.082C258.599 396.462 259.509 398.772 258.38 401.242Z" fill="#242B52"/>
</g>
<g style="mix-blend-mode:multiply" opacity="0.4">
<path d="M257.529 401.623C255.819 403.733 252.74 404.683 250.65 403.753C248.57 402.823 248.27 400.353 249.98 398.243C251.69 396.133 254.77 395.183 256.859 396.113C258.939 397.043 259.239 399.513 257.529 401.623Z" fill="#242B52"/>
</g>
</g>
<path d="M202.803 471.852L259.334 487L253.692 508.058L197.161 492.909L202.803 471.852Z" fill="#001240"/>
<g style="mix-blend-mode:multiply" opacity="0.4">
<path d="M199.262 485.076L255.794 500.225L254.254 505.972L197.723 490.824L199.262 485.076Z" fill="#242B52"/>
</g>
<path opacity="0.1" d="M202.367 473.487L258.898 488.636L257.612 493.436L201.08 478.288L202.367 473.487Z" fill="white"/>
<path d="M248.72 495.433C247.16 501.253 249.35 506.883 253.61 508.023C257.869 509.163 262.579 505.373 264.139 499.563C265.699 493.743 263.509 488.113 259.249 486.973C254.99 485.833 250.28 489.623 248.72 495.433Z" fill="#43596D"/>
<path opacity="0.2" d="M262.019 496.123C262.019 499.783 259.619 503.393 256.65 504.183C253.68 504.973 251.28 502.663 251.28 499.003C251.28 495.343 253.68 491.733 256.65 490.943C259.619 490.153 262.019 492.473 262.019 496.123Z" fill="white"/>
<path d="M260.069 496.263C260.069 498.983 258.279 501.663 256.079 502.253C253.869 502.843 252.089 501.123 252.089 498.403C252.089 495.683 253.879 493.003 256.079 492.413C258.289 491.823 260.069 493.543 260.069 496.263Z" fill="#242B52"/>
<mask id="mask23_953_37370" style="mask-type:luminance" maskUnits="userSpaceOnUse" x="252" y="492" width="9" height="11">
<path d="M260.069 496.263C260.069 498.983 258.279 501.663 256.079 502.253C253.869 502.843 252.089 501.123 252.089 498.403C252.089 495.683 253.879 493.003 256.079 492.413C258.289 491.823 260.069 493.543 260.069 496.263Z" fill="white"/>
</mask>
<g mask="url(#mask23_953_37370)">
<g style="mix-blend-mode:multiply" opacity="0.2">
<path d="M259.249 497.423C258.119 499.893 255.38 501.593 253.13 501.213C250.88 500.833 249.97 498.523 251.1 496.053C252.23 493.583 254.97 491.883 257.22 492.263C259.469 492.643 260.379 494.953 259.249 497.423Z" fill="#242B52"/>
</g>
<g style="mix-blend-mode:multiply" opacity="0.4">
<path d="M258.399 497.813C256.69 499.923 253.61 500.873 251.52 499.943C249.44 499.013 249.14 496.543 250.85 494.433C252.56 492.323 255.64 491.373 257.729 492.303C259.809 493.233 260.109 495.703 258.399 497.813Z" fill="#242B52"/>
</g>
</g>
<path d="M171.665 402.495L270.983 429.11L255.585 486.582L156.267 459.968L171.665 402.495Z" fill="#001240"/>
<g style="mix-blend-mode:multiply" opacity="0.4">
<path d="M161.995 438.577L261.313 465.191L257.113 480.868L157.795 454.254L161.995 438.577Z" fill="#242B52"/>
</g>
<path opacity="0.1" d="M170.462 406.973L269.78 433.587L266.274 446.676L166.955 420.061L170.462 406.973Z" fill="white"/>
<path d="M255.344 486.487C243.726 483.374 237.755 467.984 242.008 452.114C246.26 436.243 259.126 425.901 270.744 429.014C282.362 432.127 288.333 447.516 284.081 463.387C279.828 479.257 266.962 489.599 255.344 486.487Z" fill="#43596D"/>
<path opacity="0.2" d="M258.158 473.587C252.12 471.257 249.822 462.639 253.025 454.338C256.228 446.038 263.719 441.197 269.758 443.527C275.796 445.857 278.095 454.475 274.892 462.776C271.689 471.076 264.197 475.917 258.158 473.587Z" fill="white"/>
<path d="M257.686 470.632C252.616 468.676 250.687 461.439 253.377 454.467C256.067 447.496 262.358 443.43 267.427 445.387C272.497 447.343 274.426 454.58 271.736 461.551C269.046 468.523 262.755 472.588 257.686 470.632Z" fill="#242B52"/>
<mask id="mask24_953_37370" style="mask-type:luminance" maskUnits="userSpaceOnUse" x="252" y="444" width="21" height="28">
<path d="M257.686 470.632C252.616 468.676 250.687 461.439 253.377 454.467C256.067 447.496 262.358 443.43 267.427 445.387C272.497 447.343 274.426 454.58 271.736 461.551C269.046 468.523 262.755 472.588 257.686 470.632Z" fill="white"/>
</mask>
<g mask="url(#mask24_953_37370)">
<g style="mix-blend-mode:multiply" opacity="0.2">
<path d="M270.829 458.233C267.889 464.663 260.749 469.083 254.89 468.093C249.03 467.103 246.671 461.083 249.61 454.653C252.55 448.223 259.689 443.803 265.549 444.793C271.408 445.783 273.768 451.803 270.829 458.233Z" fill="#242B52"/>
</g>
<g style="mix-blend-mode:multiply" opacity="0.4">
<path d="M268.609 459.233C264.149 464.723 256.13 467.213 250.71 464.783C245.28 462.353 244.501 455.933 248.97 450.443C253.44 444.953 261.449 442.463 266.869 444.893C272.298 447.323 273.078 453.743 268.609 459.233Z" fill="#242B52"/>
</g>
</g>
</g>
</svg>
